<?xml version="1.0" encoding="UTF-8"?>
<svg version="1.1" xmlns="http://www.w3.org/2000/svg" width="500" height="500">
<path d="M0 0 C24.69776796 -0.06801103 49.3954588 -0.12315172 74.093297 -0.15543652 C85.5637786 -0.17083271 97.03419741 -0.19178164 108.50463867 -0.22631836 C118.51517636 -0.25644475 128.52566852 -0.27562748 138.53625029 -0.28226548 C143.82504941 -0.28613885 149.11371841 -0.29508586 154.40247536 -0.31719017 C210.78284128 -0.54339577 268.54268221 5.07101653 312 45 C312.87140625 45.78890625 313.7428125 46.5778125 314.640625 47.390625 C342.24032008 73.60165618 353.97501563 110.74457992 355 148 C355.3101405 187.31525692 343.7450697 223.59824226 316 252 C315.27296875 252.78890625 314.5459375 253.5778125 313.796875 254.390625 C301.51107256 267.40447499 284.57561581 277.42691097 268 284 C267.34 284 266.68 284 266 284 C269.30144817 290.48905329 273.23962399 296.19037983 277.57421875 302.00732422 C280.91923524 306.50384936 284.15513008 311.05742636 287.3125 315.6875 C291.44092006 321.73563167 295.60886801 327.75385615 299.8125 333.75 C300.40135986 334.59006592 300.99021973 335.43013184 301.59692383 336.2956543 C302.79832583 338.00907579 303.9999055 339.72237271 305.20166016 341.43554688 C308.13724987 345.62173128 311.06840866 349.81101509 314 354 C315.16405163 355.66276803 316.32811414 357.32552843 317.4921875 358.98828125 C319.85248124 362.36003531 322.2117491 365.7325041 324.5703125 369.10546875 C325.755166 370.79950878 326.94006166 372.49351932 328.125 374.1875 C328.70838135 375.02168457 329.2917627 375.85586914 329.89282227 376.71533203 C333.07623064 381.26382228 336.27380651 385.80172826 339.48681641 390.3293457 C344.81174392 397.83819249 350.05244547 405.40239643 355.25 413 C355.91894287 413.97501465 356.58788574 414.9500293 357.27709961 415.95458984 C357.89206299 416.8564502 358.50702637 417.75831055 359.140625 418.6875 C359.69266602 419.49574219 360.24470703 420.30398438 360.81347656 421.13671875 C362 423 362 423 362 424 C351.01316819 424.44209025 340.02847924 424.7787087 329.03453541 424.98443127 C323.92776776 425.08322968 318.82712009 425.21691307 313.72387695 425.43334961 C280.78690376 426.79440934 280.78690376 426.79440934 272.92807007 422.20672607 C268.43485458 417.96496167 266.03683254 413.18544547 263.98085022 407.42655945 C262.36228308 403.42232995 259.79210219 400.16310481 257.1875 396.75 C256.64488525 395.98373291 256.10227051 395.21746582 255.54321289 394.42797852 C254.88953735 393.50650024 254.88953735 393.50650024 254.22265625 392.56640625 C250.49332338 387.29438475 246.80931596 381.99103483 243.125 376.6875 C236.34980838 366.9359515 229.55008892 357.20196869 222.73535156 347.47802734 C220.33719413 344.05353411 217.94351952 340.6259153 215.54956055 337.19848633 C213.79002286 334.68223524 212.02633305 332.16894267 210.26171875 329.65625 C208.20659625 326.72945759 206.16742999 323.79288965 204.14453125 320.84375 C197.99728808 311.94127741 192.73695748 305.05466058 182 302 C179.25205899 301.72641194 176.73703616 301.57818994 173.99853516 301.59594727 C173.2428978 301.58908401 172.48726044 301.58222076 171.70872498 301.57514954 C169.23530758 301.55699647 166.76253158 301.56070282 164.2890625 301.56640625 C162.55325111 301.56183848 160.81744152 301.55653114 159.08163452 301.55052185 C155.45213452 301.54161296 151.8228548 301.54398792 148.19335938 301.55395508 C143.56454454 301.56543391 138.93649384 301.5452388 134.30777931 301.51603794 C130.72501879 301.49760392 127.14243889 301.49798281 123.55964279 301.50367546 C121.85416976 301.50382784 120.14868383 301.49785322 118.44325638 301.48538399 C108.14543897 301.42069639 99.08592453 301.62401801 90.4140625 307.859375 C81.9780653 316.7742716 79.87269002 324.4213799 79.79467773 336.47192383 C79.78477814 337.41875031 79.77487854 338.36557678 79.76467896 339.34109497 C79.73315333 342.46304851 79.70834187 345.58501724 79.68359375 348.70703125 C79.66301651 350.87465302 79.64201983 353.04227084 79.62062073 355.20988464 C79.56547964 360.9095032 79.51603525 366.60915749 79.46777344 372.30883789 C79.40865815 379.15047863 79.34247403 385.99205419 79.27747345 392.83364105 C79.17956413 403.22238749 79.09063945 413.61117613 79 424 C52.93 424 26.86 424 0 424 C-0.16065467 394.40383902 -0.16065467 394.40383902 -0.20101547 379.69054604 C-0.22310423 371.76153499 -0.25106114 363.83269391 -0.30175781 355.90380859 C-0.34190367 349.62200555 -0.36749794 343.34033128 -0.37635398 337.05840349 C-0.38152252 333.73882411 -0.39564772 330.41990191 -0.42292023 327.10038757 C-0.55775846 309.99588391 -0.50524261 293.91923051 7.875 278.5 C8.22159668 277.83621338 8.56819336 277.17242676 8.92529297 276.48852539 C11.52181975 271.6228808 14.41725421 267.20149297 18 263 C18.41121094 262.44699219 18.82242188 261.89398438 19.24609375 261.32421875 C30.68289267 246.56158513 49.71902462 237.74978386 67.85750389 235.21604729 C72.21765513 234.77637375 76.59550895 234.83771663 80.97387695 234.82641602 C82.59990089 234.8163855 82.59990089 234.8163855 84.2587738 234.80615234 C86.60659492 234.79213857 88.95442937 234.78023294 91.30227089 234.77020454 C95.03377185 234.75370511 98.76517571 234.73045933 102.49662781 234.70530701 C113.10455681 234.63480973 123.71252045 234.57473668 134.32055664 234.52319336 C140.81911477 234.49114418 147.31756271 234.44979921 153.8160305 234.40299797 C156.27682676 234.38712414 158.73764834 234.37473643 161.19848061 234.36609077 C178.9069029 234.30301834 196.41700782 234.02542693 213.625 229.375 C214.59083008 229.11630127 215.55666016 228.85760254 216.55175781 228.59106445 C236.69713075 222.90907908 254.06439779 211.29657281 264.62109375 192.80078125 C275.9803571 169.72828316 276.05276718 144.29565348 269 120 C267.90264897 116.83088665 266.61046332 113.93838921 265 111 C264.58105469 110.2059375 264.16210938 109.411875 263.73046875 108.59375 C253.21666122 89.82530019 235.75939297 79.53915598 215.5625 73.6875 C188.15135462 66.15155663 158.99478576 67.85649038 130.79087591 67.93153763 C126.45141923 67.9416893 122.11195747 67.94506048 117.77249146 67.94897461 C106.80664902 67.95994976 95.84082823 67.9795549 84.875 68 C72.96635878 68.02211152 61.05772564 68.04260683 49.149068 68.05341816 C44.00529523 68.05837876 38.86156236 68.06820155 33.71780562 68.08184814 C30.52715358 68.08931892 27.33650694 68.09262511 24.14584732 68.0948143 C22.6716606 68.09668131 21.19747486 68.10027226 19.72329712 68.10574722 C17.70615762 68.1130023 15.68899702 68.11341625 13.67184448 68.11352539 C11.98250951 68.11685631 11.98250951 68.11685631 10.25904655 68.12025452 C6.82137618 67.99340902 3.40543595 67.48649085 0 67 C0 44.89 0 22.78 0 0 Z " fill="#C6DD42" transform="translate(69,38)"/>
<path d="M0 0 C3 0 3 0 6 2 C6.73046875 4.6015625 6.73046875 4.6015625 7.1875 7.625 C7.34605469 8.62789063 7.50460937 9.63078125 7.66796875 10.6640625 C7.77753906 11.43492187 7.88710938 12.20578125 8 13 C3.99027798 9.32442148 1.54664585 5.81033104 -1 1 C-0.67 0.67 -0.34 0.34 0 0 Z " fill="#C5DA4F" transform="translate(328,434)"/>
<path d="M0 0 C0.66 0 1.32 0 2 0 C1.67 0.99 1.34 1.98 1 3 C0.34 3 -0.32 3 -1 3 C-0.67 4.98 -0.34 6.96 0 9 C-0.61875 9.144375 -1.2375 9.28875 -1.875 9.4375 C-4.03258322 9.93152225 -4.03258322 9.93152225 -6 11 C-4.74809374 6.51400257 -3.20614467 3.40652872 0 0 Z " fill="#C4D94F" transform="translate(84,305)"/>
<path d="M0 0 C3.59478807 3.32850747 6.22364768 6.98971331 9 11 C8.67 11.66 8.34 12.32 8 13 C7.01 12.34 6.02 11.68 5 11 C5 10.01 5 9.02 5 8 C4.34 8 3.68 8 3 8 C3 7.34 3 6.68 3 6 C2.34 6 1.68 6 1 6 C0.67 4.02 0.34 2.04 0 0 Z " fill="#C2D655" transform="translate(363,365)"/>
<path d="M0 0 C-0.33 0.66 -0.66 1.32 -1 2 C-1.99 2.33 -2.98 2.66 -4 3 C-4.66 3.66 -5.32 4.32 -6 5 C-6 4.01 -6 3.02 -6 2 C-10.455 2.495 -10.455 2.495 -15 3 C-9.57865745 0.28932872 -6.08304293 -0.11698159 0 0 Z " fill="#C3D750" transform="translate(139,274)"/>
<path d="M0 0 C3.3 0.99 6.6 1.98 10 3 C10 3.33 10 3.66 10 4 C7.36 4.33 4.72 4.66 2 5 C2 4.34 2 3.68 2 3 C1.34 2.67 0.68 2.34 0 2 C0 1.34 0 0.68 0 0 Z " fill="#C3D751" transform="translate(320,49)"/>
<path d="M0 0 C1.7074998 1.28062485 3.37373596 2.61767557 5 4 C5 4.66 5 5.32 5 6 C3.68 6 2.36 6 1 6 C0.34 4.35 -0.32 2.7 -1 1 C-0.67 0.67 -0.34 0.34 0 0 Z " fill="#C3D74F" transform="translate(386,89)"/>
<path d="M0 0 C0.33 0 0.66 0 1 0 C1 1.65 1 3.3 1 5 C0.34 5 -0.32 5 -1 5 C-1 5.66 -1 6.32 -1 7 C-1.66 7 -2.32 7 -3 7 C-3 7.66 -3 8.32 -3 9 C-3.66 9 -4.32 9 -5 9 C-3.50164236 5.88802644 -1.86022073 2.91164984 0 0 Z " fill="#C4D757" transform="translate(332,233)"/>
<path d="M0 0 C3.08089673 2.77280706 4.68775452 5.06326356 6 9 C3.525 8.01 3.525 8.01 1 7 C0.67 4.69 0.34 2.38 0 0 Z " fill="#C3D854" transform="translate(398,104)"/>
<path d="M0 0 C1.65 1.65 3.3 3.3 5 5 C4.67 5.99 4.34 6.98 4 8 C3.34 8 2.68 8 2 8 C1.34 5.36 0.68 2.72 0 0 Z " fill="#C1D652" transform="translate(386,398)"/>
<path d="M0 0 C0.99 0.66 1.98 1.32 3 2 C1.35 2.33 -0.3 2.66 -2 3 C-2 3.66 -2 4.32 -2 5 C-2.66 5 -3.32 5 -4 5 C-4.33 4.01 -4.66 3.02 -5 2 C-2.6875 0.875 -2.6875 0.875 0 0 Z " fill="#C3D94F" transform="translate(336,319)"/>
</svg>
